<?xml version="1.0" encoding="UTF-8"?>
<svg version="1.1" xmlns="http://www.w3.org/2000/svg" width="655" height="655">
<path d="M0 0 C4.54544191 -0.17797085 9.05990317 -0.09380959 13.6015625 0.10498047 C14.64054687 0.14606934 15.67953125 0.1871582 16.75 0.22949219 C64.06977761 2.25507895 110.9169948 11.98349323 153.6015625 33.10498047 C154.51599121 33.55599121 155.43041992 34.00700195 156.37255859 34.47167969 C176.5054502 44.49231493 195.0941256 55.98166759 212.6015625 70.10498047 C213.18679688 70.57307129 213.77203125 71.04116211 214.375 71.5234375 C229.42277401 83.65440509 244.04797255 97.57913465 255.6015625 113.10498047 C256.46191087 114.22502471 257.32261245 115.34479769 258.18359375 116.46435547 C268.99126818 130.69020014 278.06757514 145.91374118 285.6015625 162.10498047 C286.12234375 163.21744141 286.643125 164.32990234 287.1796875 165.47607422 C295.18053564 183.35165335 300.20815165 201.85228173 303.6015625 221.10498047 C303.73433594 221.83007812 303.86710938 222.55517578 304.00390625 223.30224609 C308.60859657 249.45585235 307.43820806 280.76093525 299.6015625 306.10498047 C299.2715625 306.10498047 298.9415625 306.10498047 298.6015625 306.10498047 C298.32183594 304.88166016 298.04210937 303.65833984 297.75390625 302.39794922 C287.3549963 258.14717425 263.64278334 219.56702604 224.7890625 194.91748047 C191.025885 174.06290949 149.50932489 166.20256702 110.6015625 175.10498047 C109.79799316 175.2823877 108.99442383 175.45979492 108.16650391 175.64257812 C79.55409826 182.19414663 54.62118029 197.03075778 34.0234375 217.69091797 C32.65044051 219.05948594 31.26030642 220.41255996 29.8203125 221.71044922 C10.85332001 239.16870367 -1.11614056 264.80057981 -8.3984375 289.10498047 C-8.60404297 289.7641748 -8.80964844 290.42336914 -9.02148438 291.10253906 C-14.22658326 308.05416163 -16.5013438 327.39939538 -15.3984375 345.10498047 C-15.33462891 346.22138916 -15.33462891 346.22138916 -15.26953125 347.36035156 C-12.46501299 392.92478448 6.67201273 435.29654655 40.6015625 466.10498047 C56.23090134 479.40474306 73.60995326 488.55356545 92.6015625 496.10498047 C93.62636719 496.51619141 94.65117187 496.92740234 95.70703125 497.35107422 C96.64482422 497.72425781 96.64482422 497.72425781 97.6015625 498.10498047 C57.89785632 524.57411792 -25.13316361 514.13849427 -69.02050781 505.38232422 C-94.75466836 500.01851385 -119.56540621 492.22856778 -143.3984375 481.10498047 C-144.28837402 480.69022461 -145.17831055 480.27546875 -146.09521484 479.84814453 C-166.24310393 470.34786261 -184.9347093 458.93252172 -202.3984375 445.10498047 C-203.39101562 444.32509766 -204.38359375 443.54521484 -205.40625 442.74169922 C-221.06668314 430.18212107 -236.14568042 416.04051331 -248.3984375 400.10498047 C-249.11128906 399.19748047 -249.82414062 398.28998047 -250.55859375 397.35498047 C-286.69491892 350.4478635 -305.21231036 291.62190536 -298.15234375 232.44091797 C-295.16638969 210.12395614 -289.37367396 188.74536105 -280.3984375 168.10498047 C-280.11274902 167.44320801 -279.82706055 166.78143555 -279.53271484 166.09960938 C-263.42602259 129.23086001 -235.52327317 94.31201325 -203.3984375 70.10498047 C-202.39804443 69.33855225 -202.39804443 69.33855225 -201.37744141 68.55664062 C-190.14194541 59.96536683 -178.63696992 52.18810631 -166.3984375 45.10498047 C-165.26946045 44.43885742 -165.26946045 44.43885742 -164.11767578 43.75927734 C-114.06807931 14.33701509 -57.36184051 2.51074831 0 0 Z " fill="#46698E" transform="translate(325.3984375,79.89501953125)"/>
<path d="M0 0 C0.91910156 0.44988281 1.83820313 0.89976562 2.78515625 1.36328125 C10.56208225 5.33566791 17.2634816 10.50622355 24 16 C25.24136719 17.00740234 25.24136719 17.00740234 26.5078125 18.03515625 C50.15674921 38.09967224 64.90116368 69.60367919 69 100 C69.06522873 102.29083289 69.0858841 104.58335794 69.0625 106.875 C69.05347656 108.02742188 69.04445313 109.17984375 69.03515625 110.3671875 C69.01775391 111.67042969 69.01775391 111.67042969 69 113 C67.72769531 112.23816406 67.72769531 112.23816406 66.4296875 111.4609375 C42.68488117 97.4417249 16.87697433 90.59019156 -10.52734375 97.03125 C-26.98505989 101.62237891 -41.3280748 108.44559891 -54 120 C-54.76699219 120.67417969 -55.53398437 121.34835937 -56.32421875 122.04296875 C-72.63126837 137.2116554 -83.72466369 160.91970253 -85.20654297 183.09008789 C-85.30376168 186.45874152 -85.32909751 189.81749318 -85.3125 193.1875 C-85.30686035 194.3835083 -85.3012207 195.5795166 -85.29541016 196.81176758 C-85.05904676 214.03938308 -80.97001072 230.59602028 -71.8828125 245.3984375 C-71 247 -71 247 -71 249 C-93.4040646 247.02908588 -113.96788193 236.21193685 -131 222 C-132.34384766 220.88625 -132.34384766 220.88625 -133.71484375 219.75 C-139.90849827 214.40570642 -145.04307004 208.49432365 -150 202 C-150.58265625 201.25621094 -151.1653125 200.51242187 -151.765625 199.74609375 C-173.03105253 171.1768862 -180.88626896 134.36240992 -176.1796875 99.32885742 C-171.77915147 71.41880875 -160.11487796 46.8039688 -141 26 C-140.21109375 25.12859375 -139.4221875 24.2571875 -138.609375 23.359375 C-120.66324849 4.46246033 -95.03953167 -9.12083227 -69 -12 C-68.09378906 -12.10828125 -67.18757813 -12.2165625 -66.25390625 -12.328125 C-43.21032046 -14.75712988 -20.59048374 -10.63704937 0 0 Z " fill="#941201" transform="translate(522,299)"/>
</svg>
